<svg width="1000" height="500" viewBox="0 0 1000 500" fill="none" xmlns="http://www.w3.org/2000/svg">
  <!-- Simplified world map outline -->
  <!-- North America -->
  <path d="M203,27 C191,38 180,53 175,66 C170,79 166,90 158,100 C150,110 138,127 133,146 C128,165 123,184 115,192 C107,200 102,214 98,230 C94,246 87,265 83,271 C79,277 79,285 77,298 C75,311 70,322 60,335 C50,348 46,358 46,369 C46,380 51,394 60,405 C69,416 77,425 83,438 C89,451 103,463 116,473 C129,483 135,496 140,205" 
        stroke="#6366F1" strokeWidth="2" fill="none" opacity="0.8"/>
  
  <!-- South America -->
  <path d="M250,230 C243,241 235,259 230,277 C225,295 216,313 208,328 C200,343 195,357 195,371 C195,385 199,405 208,418 C217,431 227,441 235,455 C243,469 248,483 248,494 C248,505 246,514 240,524 C234,534 220,546 212,558" 
        stroke="#6366F1" strokeWidth="2" fill="none" opacity="0.8"/>
  
  <!-- Europe -->
  <path d="M462,57 C454,62 446,69 440,81 C434,93 426,103 420,114 C414,125 409,138 403,149 C397,160 391,169 382,179 C373,189 366,194 359,202 C352,210 347,220 347,230 C347,240 351,256 359,264 C367,272 378,275 391,275 C404,275 417,268 427,261 C437,254 442,241 448,229 C454,217 463,207 473,201 C483,195 493,193 504,191" 
        stroke="#6366F1" strokeWidth="2" fill="none" opacity="0.8"/>
  
  <!-- Africa -->
  <path d="M460,190 C466,202 474,217 480,232 C486,247 489,260 489,277 C489,294 483,322 473,340 C463,358 449,373 439,385 C429,397 424,408 417,420 C410,432 402,442 391,448 C380,454 370,455 358,455 C346,455 334,450 330,444" 
        stroke="#6366F1" strokeWidth="2" fill="none" opacity="0.8"/>
  
  <!-- Asia -->
  <path d="M510,60 C522,66 534,73 546,85 C558,97 576,111 591,125 C606,139 618,150 636,161 C654,172 678,187 693,202 C708,217 722,232 733,246 C744,260 751,276 759,291 C767,306 776,325 778,339 C780,353 778,366 769,376 C760,386 748,391 736,396 C724,401 712,407 700,413 C688,419 677,421 665,426 C653,431 647,437 635,444 C623,451 603,458 593,464" 
        stroke="#6366F1" strokeWidth="2" fill="none" opacity="0.8"/>
  
  <!-- Australia -->
  <path d="M760,317 C770,324 783,332 793,343 C803,354 810,369 812,382 C814,395 813,409 807,420 C801,431 788,442 775,448 C762,454 747,458 735,458 C723,458 712,452 704,446 C696,440 689,426 687,415 C685,404 686,391 690,380 C694,369 703,353 712,343 C721,333 736,323 744,317" 
        stroke="#6366F1" strokeWidth="2" fill="none" opacity="0.8"/>
  
  <!-- Additional Asia details -->
  <path d="M830,180 C835,187 842,196 847,205 C852,214 856,227 856,238 C856,249 851,260 847,267" 
        stroke="#6366F1" strokeWidth="2" fill="none" opacity="0.8"/>
  
  <!-- Small islands -->
  <circle cx="838" cy="267" r="5" stroke="#6366F1" strokeWidth="1.5" fill="none" opacity="0.8"/>
  <circle cx="810" cy="280" r="3" stroke="#6366F1" strokeWidth="1.5" fill="none" opacity="0.8"/>
  <circle cx="560" cy="370" r="4" stroke="#6366F1" strokeWidth="1.5" fill="none" opacity="0.8"/>
  <circle cx="300" cy="97" r="5" stroke="#6366F1" strokeWidth="1.5" fill="none" opacity="0.8"/>
</svg>
