<svg xmlns="http://www.w3.org/2000/svg" viewBox="0 0 24 24" width="128" height="128" fill="#ffffff"><circle cx="12" cy="12" r="4" fill="#5b21b6"/><path d="M12,2 C17.5228,2 22,6.47715 22,12 C22,17.5228 17.5228,22 12,22 C6.47715,22 2,17.5228 2,12 C2,6.47715 6.47715,2 12,2 Z M12,4 C7.58172,4 4,7.58172 4,12 C4,16.4183 7.58172,20 12,20 C16.4183,20 20,16.4183 20,12 C20,7.58172 16.4183,4 12,4 Z" fill-opacity="0.4"/><circle cx="12" cy="7" r="1" fill="#ffffff"/><rect x="11" y="10" width="2" height="7" rx="1" fill="#ffffff"/></svg>
