<svg width="240" height="160" viewBox="0 0 240 160" fill="none" xmlns="http://www.w3.org/2000/svg">
  <circle cx="120" cy="80" r="60" fill="#F3E8FF" opacity="0.6"/>
  
  <!-- Laptop Base -->
  <rect x="70" y="100" width="100" height="5" rx="2" fill="#A78BFA"/>
  <path d="M75 100H165C167.209 100 169 98.2091 169 96V60C169 57.7909 167.209 56 165 56H75C72.7909 56 71 57.7909 71 60V96C71 98.2091 72.7909 100 75 100Z" fill="#C4B5FD"/>
  <rect x="75" y="60" width="90" height="36" rx="2" fill="#FFFFFF" stroke="#A78BFA" strokeWidth="1"/>
  
  <!-- Upload Arrow -->
  <path d="M120 68L110 78H115V88H125V78H130L120 68Z" fill="#8B5CF6"/>
  <rect x="100" y="90" width="40" height="4" rx="2" fill="#8B5CF6"/>
  
  <!-- Floating Vocabulary Words -->
  <g class="animate-float" style="animation-delay: 0.2s">
    <rect x="40" y="30" width="40" height="20" rx="10" fill="#C4B5FD"/>
    <text x="45" y="44" font-family="Arial" font-size="10" fill="#4C1D95">Hola</text>
  </g>
  
  <g class="animate-float" style="animation-delay: 0.5s">
    <rect x="160" y="40" width="50" height="20" rx="10" fill="#DDD6FE"/>
    <text x="165" y="54" font-family="Arial" font-size="10" fill="#5B21B6">Bonjour</text>
  </g>
  
  <g class="animate-float" style="animation-delay: 0.8s">
    <rect x="30" y="80" width="30" height="20" rx="10" fill="#EDE9FE"/>
    <text x="35" y="94" font-family="Arial" font-size="10" fill="#6D28D9">Chat</text>
  </g>
  
  <g class="animate-float" style="animation-delay: 1.1s">
    <rect x="180" y="90" width="40" height="20" rx="10" fill="#C4B5FD"/>
    <text x="185" y="104" font-family="Arial" font-size="10" fill="#4C1D95">Danke</text>
  </g>
  
  <g class="animate-float" style="animation-delay: 1.4s">
    <rect x="150" y="130" width="60" height="20" rx="10" fill="#DDD6FE"/>
    <text x="155" y="144" font-family="Arial" font-size="10" fill="#5B21B6">Welcome</text>
  </g>
  
  <g class="animate-float" style="animation-delay: 1.7s">
    <rect x="50" y="120" width="50" height="20" rx="10" fill="#EDE9FE"/>
    <text x="55" y="134" font-family="Arial" font-size="10" fill="#6D28D9">Gracias</text>
  </g>
</svg> 