<?xml version="1.0" encoding="UTF-8"?>
<svg width="400" height="200" viewBox="0 0 400 200" fill="none" xmlns="http://www.w3.org/2000/svg">
  <rect width="400" height="200" rx="10" fill="#F5F3FF" />
  
  <!-- Background Elements -->
  <circle cx="330" cy="40" r="25" fill="#EDE9FE" />
  <circle cx="70" cy="160" r="30" fill="#EDE9FE" />
  <path d="M50 60C70 40 90 45 100 65" stroke="#C4B5FD" stroke-width="4" stroke-linecap="round" />
  
  <!-- Podium Base -->
  <rect x="100" y="140" width="200" height="10" rx="2" fill="#8B5CF6" />
  
  <!-- Podium Stand 2nd Place -->
  <rect x="125" y="100" width="70" height="40" rx="2" fill="#A78BFA" />
  
  <!-- Podium Stand 1st Place -->
  <rect x="205" y="70" width="70" height="70" rx="2" fill="#8B5CF6" />
  
  <!-- Podium Stand 3rd Place -->
  <rect x="285" y="115" width="70" height="25" rx="2" fill="#C4B5FD" />
  
  <!-- Trophy -->
  <circle cx="240" cy="45" r="15" fill="#FFCC22" stroke="#F59E0B" stroke-width="2" />
  <rect x="232" y="60" width="16" height="5" rx="1" fill="#FFCC22" stroke="#F59E0B" stroke-width="2" />
  <rect x="236" y="65" width="8" height="15" rx="1" fill="#FFCC22" stroke="#F59E0B" stroke-width="2" />
  
  <!-- Medal 2nd Place -->
  <circle cx="160" cy="85" r="10" fill="#C7D2FE" stroke="#6366F1" stroke-width="2" />
  <text x="156" y="89" fill="#6366F1" font-family="Arial" font-weight="bold" font-size="10">2</text>
  
  <!-- Medal 1st Place -->
  <circle cx="240" cy="55" r="10" fill="#FEF3C7" stroke="#F59E0B" stroke-width="2" />
  <text x="236" y="59" fill="#F59E0B" font-family="Arial" font-weight="bold" font-size="10">1</text>
  
  <!-- Medal 3rd Place -->
  <circle cx="320" cy="100" r="10" fill="#FEE2E2" stroke="#EF4444" stroke-width="2" />
  <text x="316" y="104" fill="#EF4444" font-family="Arial" font-weight="bold" font-size="10">3</text>
  
  <!-- Stars -->
  <path d="M260 30L262 34L267 35L264 38L264 43L260 41L256 43L256 38L253 35L258 34L260 30Z" fill="#FFC107" />
  <path d="M290 50L291 52L294 53L292 55L292 58L290 56L288 58L288 55L285 53L289 52L290 50Z" fill="#FFC107" />
  <path d="M220 30L221 32L224 33L222 35L222 38L220 36L218 38L218 35L215 33L219 32L220 30Z" fill="#FFC107" />
  
  <!-- Person on Podium -->
  <circle cx="240" cy="45" r="8" fill="#8B5CF6" />
  <rect x="236" y="53" width="8" height="10" rx="2" fill="#8B5CF6" />
  <line x1="234" y1="56" x2="229" y2="60" stroke="#8B5CF6" stroke-width="2" stroke-linecap="round" />
  <line x1="246" y1="56" x2="251" y2="60" stroke="#8B5CF6" stroke-width="2" stroke-linecap="round" />
  
  <!-- Leaderboard Text -->
  <rect x="30" y="20" width="80" height="20" rx="4" fill="#8B5CF6" />
  <text x="35" y="35" fill="white" font-family="Arial" font-weight="bold" font-size="12">CHAMPIONS</text>
</svg> 